<svg fill="none" height="28" viewBox="0 0 80 28" width="80" xmlns="http://www.w3.org/2000/svg"><path d="M23.24.95v21.53H17.9v-10.8l-4.78 7.38v.04h-2.98v-.04l-4.81-7.44.03 10.86H0V.95h3.96l7.66 11.5L19.25.95h4zm19.92 6.17v15.36h-5.13v-.85a7.67 7.67 0 01-4.21 1.17c-4.15 0-7.63-3.45-7.63-8.01 0-4.6 3.48-8.01 7.63-8.01 1.68 0 3.07.44 4.21 1.17v-.83h5.13zM34.83 18.6c1.14 0 2.25-.32 3.2-1.43v-4.75a3.98 3.98 0 00-3.2-1.45c-2.09 0-3.6 1.7-3.6 3.83 0 2.12 1.51 3.8 3.6 3.8zm10.77-1.4l4.56.04c.22 1.33 1.33 1.93 2.95 1.93 1.36 0 2.18-.41 2.18-1.08 0-.5-.48-.92-1.49-1.07l-3.1-.54c-2.66-.45-4.5-1.93-4.5-4.63 0-3.23 2.76-5.13 6.84-5.13 3.26 0 6.97 1.27 7.19 5.32h-4.56c-.1-1.17-1.17-1.7-2.6-1.7-1.33 0-1.93.5-1.93 1.1 0 .5.38.98 1.59 1.2l2.88.48c2.88.54 4.78 1.93 4.78 4.66 0 3.54-3.2 5.19-7.19 5.19-4.02 0-7.28-1.68-7.6-5.77zm24.83-.03l-2.16 2.32v3h-5.13V0h5.13v12.89l5.36-5.77h6.1l-5.82 6.27 6.33 9.1H74.1l-3.67-5.33z" fill="#fff"/></svg>
